<svg width="25" height="25" viewBox="0 0 25 25" fill="none" xmlns="http://www.w3.org/2000/svg">
<path d="M12.3999 21.5L10.9499 20.2C9.26657 18.6833 7.8749 17.375 6.7749 16.275C5.6749 15.175 4.7999 14.1917 4.1499 13.325C3.4999 12.4417 3.04157 11.6333 2.7749 10.9C2.5249 10.1667 2.3999 9.41666 2.3999 8.64999C2.3999 7.08333 2.9249 5.77499 3.9749 4.72499C5.0249 3.67499 6.33324 3.14999 7.8999 3.14999C8.76657 3.14999 9.59157 3.33333 10.3749 3.69999C11.1582 4.06666 11.8332 4.58333 12.3999 5.24999C12.9666 4.58333 13.6416 4.06666 14.4249 3.69999C15.2082 3.33333 16.0332 3.14999 16.8999 3.14999C18.4666 3.14999 19.7749 3.67499 20.8249 4.72499C21.8749 5.77499 22.3999 7.08333 22.3999 8.64999C22.3999 9.41666 22.2666 10.1667 21.9999 10.9C21.7499 11.6333 21.2999 12.4417 20.6499 13.325C19.9999 14.1917 19.1249 15.175 18.0249 16.275C16.9249 17.375 15.5332 18.6833 13.8499 20.2L12.3999 21.5ZM12.3999 18.8C13.9999 17.3667 15.3166 16.1417 16.3499 15.125C17.3832 14.0917 18.1999 13.2 18.7999 12.45C19.3999 11.6833 19.8166 11.0083 20.0499 10.425C20.2832 9.825 20.3999 9.23333 20.3999 8.64999C20.3999 7.64999 20.0666 6.81666 19.3999 6.15C18.7332 5.48333 17.8999 5.14999 16.8999 5.14999C16.1166 5.14999 15.3916 5.37499 14.7249 5.82499C14.0582 6.25833 13.5999 6.81666 13.3499 7.49999H11.4499C11.1999 6.81666 10.7416 6.25833 10.0749 5.82499C9.40824 5.37499 8.68324 5.14999 7.8999 5.14999C6.8999 5.14999 6.06657 5.48333 5.3999 6.15C4.73324 6.81666 4.3999 7.64999 4.3999 8.64999C4.3999 9.23333 4.51657 9.825 4.7499 10.425C4.98324 11.0083 5.3999 11.6833 5.9999 12.45C6.5999 13.2 7.41657 14.0917 8.4499 15.125C9.48324 16.1417 10.7999 17.3667 12.3999 18.8Z" fill="black"/>
</svg>
